<svg width="40" height="40" fill="none" inkscape:version="1.4 (86a8ad7, 2024-10-11)" sodipodi:docname="logo.svg" version="1.1" viewBox="0 0 40 40" xmlns="http://www.w3.org/2000/svg" xmlns:inkscape="http://www.inkscape.org/namespaces/inkscape" xmlns:sodipodi="http://sodipodi.sourceforge.net/DTD/sodipodi-0.dtd">
 <sodipodi:namedview bordercolor="#000000" borderopacity="0.25" inkscape:current-layer="svg6" inkscape:cx="20" inkscape:cy="20" inkscape:deskcolor="#d1d1d1" inkscape:pagecheckerboard="0" inkscape:pageopacity="0.0" inkscape:showpageshadow="2" inkscape:window-height="1017" inkscape:window-maximized="1" inkscape:window-width="1920" inkscape:window-x="-8" inkscape:window-y="-8" inkscape:zoom="20.375" pagecolor="#ffffff"/>
 <rect transform="rotate(45.977 25.536 13.486)" x="25.536" y="13.486" width="1.7147" height="16.734" fill="#fff"/>
 <path d="m26 14h10.8c0.6628 0 1.2 0.5373 1.2 1.2v21.6c0 0.6628-0.5372 1.2-1.2 1.2h-21.6c-0.6627 0-1.2-0.5372-1.2-1.2v-10.8" fill="#fff"/>
 <path d="m26 14h10.8c0.6628 0 1.2 0.5373 1.2 1.2v21.6c0 0.6628-0.5372 1.2-1.2 1.2h-21.6c-0.6627 0-1.2-0.5372-1.2-1.2v-10.8" stroke="#16161a" stroke-linecap="round" stroke-linejoin="round" stroke-width="2"/>
 <path d="M26 14V3.2C26 2.53726 25.4628 2 24.8 2H3.2C2.53726 2 2 2.53726 2 3.2V24.8C2 25.4628 2.53726 26 3.2 26H14" fill="#fff"/>
 <path d="M26 14V3.2C26 2.53726 25.4628 2 24.8 2H3.2C2.53726 2 2 2.53726 2 3.2V24.8C2 25.4628 2.53726 26 3.2 26H14" stroke="#16161a" stroke-linecap="round" stroke-linejoin="round" stroke-width="2"/>
 <path d="m10 20c-0.55228 0-1-0.4477-1-1v-11c0-0.55228 0.44772-1 1-1h3.7531c0.727 0 1.406 0.07311 2.037 0.21932 0.6447 0.13293 1.2003 0.36555 1.6667 0.69786 0.4801 0.31902 0.8573 0.75102 1.1317 1.296 0.2743 0.5317 0.4115 1.1897 0.4115 1.9739 0 0.7577-0.144 1.4157-0.4321 1.9739-0.2743 0.5583-0.6516 1.0169-1.1317 1.3758s-1.0357 0.6248-1.6667 0.7976-1.3031 0.2592-2.0164 0.2592h-0.7284c-0.5523 0-1 0.4477-1 1v2.4064c0 0.5523-0.4477 1-1 1h-1.0247zm2.0247-7.7393c0 0.5523 0.4477 1 1 1h0.5432c1.6461 0 2.4691-0.6912 2.4691-2.0736 0-0.6779-0.2126-1.1564-0.6378-1.4356-0.4115-0.27914-1.022-0.41871-1.8313-0.41871h-0.5432c-0.5523 0-1 0.44772-1 0.99998v1.9279z" fill="#16161a"/>
 <path transform="scale(1.0528 .94986)" d="m29.677 32.391q0 0.25676-0.02054 0.44162-0.01027 0.1746-0.04108 0.30811-0.03081 0.12324-0.08216 0.21568-0.05135 0.09243-0.16432 0.21568-0.11297 0.11297-0.44163 0.29784-0.31838 0.18487-0.79082 0.35946-0.46217 0.16433-1.0681 0.2773-0.59568 0.11297-1.2941 0.11297-1.366 0-2.4649-0.42108-1.0989-0.42108-1.8692-1.253-0.77028-0.84217-1.1811-2.0952-0.41082-1.253-0.41082-2.9168 0-1.6946 0.4519-3.0092 0.4519-1.3146 1.2633-2.2081 0.81136-0.89352 1.9411-1.3557 1.14-0.46217 2.506-0.46217 0.5546 0 1.0681 0.09243t0.94487 0.24649q0.44163 0.14378 0.79082 0.33892t0.48271 0.33892q0.14378 0.13351 0.19514 0.22595 0.05135 0.09243 0.08216 0.23622 0.03081 0.14378 0.04108 0.33892 0.02054 0.19514 0.02054 0.48271 0 0.30811-0.02054 0.52379-0.02054 0.21568-0.07189 0.34919-0.05135 0.13351-0.12324 0.19514-0.07189 0.06162-0.16432 0.06162-0.15406 0-0.39027-0.1746-0.23622-0.18487-0.61622-0.40054-0.36973-0.22595-0.89352-0.40054-0.51352-0.18487-1.2324-0.18487-0.79082 0-1.4173 0.32865-0.61622 0.31838-1.0578 0.92433-0.43136 0.59568-0.6573 1.4481t-0.22595 1.9206q0 1.1708 0.23622 2.0335 0.24649 0.85244 0.68812 1.407 0.4519 0.5546 1.0784 0.8319 0.63676 0.26703 1.4276 0.26703 0.71892 0 1.2427-0.16433 0.52379-0.1746 0.89352-0.38 0.38-0.20541 0.61622-0.36973 0.24649-0.16432 0.38-0.16432 0.1027 0 0.16433 0.04108 0.06162 0.04108 0.1027 0.16433 0.04108 0.12324 0.06162 0.34919 0.02054 0.21568 0.02054 0.58541z" fill="#000" stroke-linejoin="round" stroke-width="1.1072" style="paint-order:markers stroke fill" aria-label="C"/>
</svg>
